<svg xmlns="http://www.w3.org/2000/svg" viewBox="0 0 1200 630" width="1200" height="630">
  <defs>
    <linearGradient id="bg" x1="0" y1="0" x2="0" y2="1">
      <stop offset="0" stop-color="#100d0a"/>
      <stop offset="1" stop-color="#06050a"/>
    </linearGradient>
    <radialGradient id="vignette" cx="50%" cy="50%" r="65%">
      <stop offset="60%" stop-color="#000" stop-opacity="0"/>
      <stop offset="100%" stop-color="#000" stop-opacity="0.55"/>
    </radialGradient>
    <pattern id="grid" width="48" height="48" patternUnits="userSpaceOnUse">
      <path d="M48 0 L0 0 0 48" fill="none" stroke="#1d1a16" stroke-width="1"/>
    </pattern>
  </defs>

  <rect width="1200" height="630" fill="url(#bg)"/>
  <rect width="1200" height="630" fill="url(#grid)" opacity="0.6"/>
  <rect width="1200" height="630" fill="url(#vignette)"/>

  <g transform="translate(80,330)" fill="none" stroke="#ff7a1a" stroke-width="3.2" stroke-linecap="round" stroke-linejoin="round">
    <path d="M0 0 L80 0 L120 -60 L160 80 L200 -40 L240 60 L280 -20 L320 40 L360 -90 L400 110 L440 0 L520 0 L560 -30 L600 50 L640 -70 L680 90 L720 -10 L760 20 L800 -50 L840 70 L880 0 L1040 0"/>
  </g>
  <circle cx="1120" cy="330" r="9" fill="#83e89c"/>
  <circle cx="1120" cy="330" r="22" fill="none" stroke="#83e89c" stroke-width="1.5" opacity="0.45"/>

  <g font-family="'JetBrains Mono', 'IBM Plex Mono', 'Fira Code', monospace" fill="#f5f1ea">
    <text x="80" y="180" font-size="120" font-weight="600" letter-spacing="-2">horch<tspan font-style="italic">d</tspan><tspan fill="#ff7a1a" font-style="normal">_</tspan></text>
    <text x="84" y="232" font-size="26" fill="#a39c8e" letter-spacing="3">DOCUMENTATION</text>
  </g>

  <g font-family="'Newsreader', 'Source Serif Pro', Georgia, serif" fill="#d8d2c5">
    <text x="80" y="500" font-size="36" font-style="italic">Install, configure, and subscribe to horchd.</text>
    <text x="80" y="548" font-size="22" fill="#8e8678">Getting started &#183; reference &#183; recipes &#183; docs.horchd.xyz</text>
  </g>

  <g transform="translate(960,80)">
    <rect x="0" y="0" width="160" height="36" rx="18" fill="#181410" stroke="#2a2520"/>
    <circle cx="20" cy="18" r="4" fill="#83e89c"/>
    <text x="32" y="24" font-family="'JetBrains Mono', monospace" font-size="13" fill="#a39c8e" letter-spacing="2">DOCS&#160;&#183;&#160;v0.1</text>
  </g>
</svg>
